<svg xmlns="http://www.w3.org/2000/svg" viewBox="0 0 200 200">
  <path fill="#000" d="M100 50c-27.6 0-50 22.4-50 50s22.4 50 50 50 50-22.4 50-50-22.4-50-50-50zm0 86c-19.9 0-36-16.1-36-36s16.1-36 36-36 36 16.1 36 36-16.1 36-36 36z"/>
  <path fill="#000" d="M100 20v14c3.3 0 6.5.4 9.6 1.1l4-13.4c-4.4-1.1-9-1.7-13.6-1.7zm27.4 8.2l-8 11.3c2.7 1.9 5.1 4.3 7.1 7.1l11.3-8c-2.9-4.1-6.3-7.5-10.4-10.4zM166 100c0-4.6-.6-9.2-1.7-13.6l-13.4 4c.7 3.1 1.1 6.3 1.1 9.6h14zm-8.2 27.4c1.9-2.7 3.4-5.6 4.6-8.7l12.9 5.4c-1.8 4.3-4.1 8.3-7 11.9l-10.5-8.6zM100 166c4.6 0 9.2-.6 13.6-1.7l-4-13.4c-3.1.7-6.3 1.1-9.6 1.1v14zm-27.4-8.2c2.7-1.9 5.1-4.3 7.1-7.1l-11.3-8c-2.9 4.1-5.2 8.6-6.8 13.4l11 1.7zM34 100c0 4.6.6 9.2 1.7 13.6l13.4-4c-.7-3.1-1.1-6.3-1.1-9.6H34zm8.2-27.4c-1.9 2.7-3.4 5.6-4.6 8.7l-12.9-5.4c1.8-4.3 4.1-8.3 7-11.9l10.5 8.6z"/>
</svg>